<?xml version="1.0" encoding="UTF-8" standalone="no"?>
<!-- Created with Inkscape (http://www.inkscape.org/) -->

<svg
   xmlns:dc="http://purl.org/dc/elements/1.1/"
   xmlns:cc="http://creativecommons.org/ns#"
   xmlns:rdf="http://www.w3.org/1999/02/22-rdf-syntax-ns#"
   xmlns:svg="http://www.w3.org/2000/svg"
   xmlns="http://www.w3.org/2000/svg"
   xmlns:sodipodi="http://sodipodi.sourceforge.net/DTD/sodipodi-0.dtd"
   xmlns:inkscape="http://www.inkscape.org/namespaces/inkscape"
   version="1.1"
   id="svg112937"
   xml:space="preserve"
   width="800"
   height="800"
   viewBox="0 0 800 800"
   sodipodi:docname="star-shape-graphics-publicdomainvectors.org.svg"
   inkscape:version="0.92.4 (5da689c313, 2019-01-14)"><metadata
     id="metadata112943"><rdf:RDF><cc:Work
         rdf:about=""><dc:format>image/svg+xml</dc:format><dc:type
           rdf:resource="http://purl.org/dc/dcmitype/StillImage" /><dc:title></dc:title></cc:Work></rdf:RDF></metadata><defs
     id="defs112941"><clipPath
       clipPathUnits="userSpaceOnUse"
       id="clipPath112953"><path
         d="M 0,600 H 600 V 0 H 0 Z"
         id="path112951"
         inkscape:connector-curvature="0" /></clipPath></defs><sodipodi:namedview
     pagecolor="#ffffff"
     bordercolor="#666666"
     borderopacity="1"
     objecttolerance="10"
     gridtolerance="10"
     guidetolerance="10"
     inkscape:pageopacity="0"
     inkscape:pageshadow="2"
     inkscape:window-width="797"
     inkscape:window-height="480"
     id="namedview112939"
     showgrid="false"
     inkscape:zoom="0.295"
     inkscape:cx="400"
     inkscape:cy="400"
     inkscape:window-x="0"
     inkscape:window-y="0"
     inkscape:window-maximized="0"
     inkscape:current-layer="g112945" /><g
     id="g112945"
     inkscape:groupmode="layer"
     inkscape:label="star-shape-graphics-publicdomainvectors.org"
     transform="matrix(1.3333333,0,0,-1.3333333,0,800)"><g
       id="g112947"><g
         id="g112949"
         clip-path="url(#clipPath112953)"><path
           d="m 417.639,334.163 c 0.024,-0.817 0.041,-1.636 0.048,-2.459 10e-4,-0.36 -0.001,-0.717 -0.002,-1.077 h 0.003 c 0,0 0.002,-11.132 -1.625,-16.507 -1.729,-10.408 -7.882,-33.159 -29.576,-52.161 -0.6,-0.5 -1.166,-0.959 -1.699,-1.379 1.83,-1.328 8.222,-5.922 11.344,-7.568 3.846,3.33 8.484,7.896 13.1,13.789 7.476,9.539 15.997,24.088 19.672,43.741 0.009,-0.004 0.019,-0.01 0.028,-0.014 0.34,2.26 1.343,9.19 1.636,13.842 -0.002,0 -0.005,0.002 -0.006,0.002 0.136,2.421 0.204,4.897 0.183,7.443 -0.007,0.789 -0.021,1.571 -0.043,2.348 z M 300.015,216.539 v -13.064 c 0.776,-0.022 1.558,-0.036 2.347,-0.043 2.546,-0.02 5.022,0.047 7.444,0.183 0,-0.002 0.002,-0.004 0.002,-0.006 4.651,0.293 11.582,1.295 13.841,1.637 -0.003,0.008 -0.009,0.018 -0.013,0.027 19.653,3.674 34.202,12.196 43.741,19.672 5.892,4.616 10.459,9.254 13.789,13.1 -1.646,3.123 -6.24,9.514 -7.569,11.344 -0.419,-0.534 -0.878,-1.098 -1.379,-1.7 -19.001,-21.693 -41.753,-27.845 -52.16,-29.574 -5.375,-1.629 -16.508,-1.627 -16.508,-1.627 v 0.004 c -0.36,0 -0.717,-0.004 -1.076,-0.002 -0.824,0.008 -1.643,0.024 -2.459,0.049 m 36.511,117.624 c -0.022,-0.777 -0.036,-1.559 -0.043,-2.348 -0.015,-1.871 0.018,-3.706 0.09,-5.508 4.444,2.169 8.146,3.507 12.967,4.964 0.003,0.146 0,0.288 0,0.433 0.007,0.823 0.023,1.642 0.048,2.459 z M 300.015,297.65 v -13.06 c 0.816,0.023 1.635,0.041 2.459,0.047 0.144,0 0.287,-0.002 0.432,0 1.457,4.822 2.795,8.523 4.964,12.967 -1.802,0.072 -3.637,0.105 -5.508,0.089 -0.789,-0.005 -1.571,-0.019 -2.347,-0.043 m 100.166,-63.654 c 13.676,-6.267 27.941,-9.435 42.541,-9.435 25.47,0 42.834,9.74 43.56,10.156 l 3.342,1.908 -0.05,3.85 c -0.008,0.537 -0.251,13.339 -6.884,29.625 -6.088,14.953 -18.97,35.929 -45.761,50.946 -1.602,0.898 -3.214,1.74 -4.831,2.553 -0.122,-3.278 -0.847,-9.344 -1.899,-13.758 0.114,-0.063 0.23,-0.122 0.345,-0.186 18.685,-10.474 32.09,-25.268 39.843,-43.971 3.747,-9.039 5.209,-16.883 5.774,-21.373 -5.717,-2.471 -17.771,-6.69 -33.439,-6.69 -15.871,0 -31.35,4.332 -46.003,12.877 -0.701,0.41 -1.393,0.826 -2.08,1.248 0.008,0.008 0.02,0.016 0.029,0.024 -2.032,1.363 -9.029,6.091 -11.21,8.025 -0.957,0.725 -2.074,1.611 -3.312,2.666 -10.156,9.049 -17.929,19.889 -23.199,32.4 -3.378,8.017 -4.948,15.038 -5.676,19.606 -4.276,-1.097 -8.819,-2.909 -12.651,-5.431 1.454,-7.193 3.554,-13.684 5.998,-19.477 -5.793,2.445 -12.284,4.545 -19.476,5.998 -2.523,-3.832 -4.334,-8.375 -5.432,-12.651 4.568,-0.728 11.589,-2.299 19.606,-5.676 12.512,-5.269 23.352,-13.042 32.401,-23.199 1.054,-1.238 1.941,-2.355 2.666,-3.312 1.933,-2.18 6.662,-9.178 8.025,-11.209 0.008,0.008 0.016,0.019 0.023,0.029 0.423,-0.687 0.839,-1.379 1.248,-2.08 8.546,-14.654 12.877,-30.133 12.877,-46.004 0,-15.668 -4.218,-27.723 -6.69,-33.439 -4.489,0.566 -12.333,2.027 -21.372,5.775 -18.703,7.752 -33.498,21.158 -43.972,39.842 -0.064,0.115 -0.123,0.23 -0.186,0.346 -4.414,-1.053 -10.48,-1.778 -13.758,-1.899 0.814,-1.617 1.655,-3.23 2.553,-4.832 15.017,-26.791 35.994,-39.672 50.946,-45.762 16.285,-6.632 29.089,-6.875 29.626,-6.882 l 3.85,-0.051 1.908,3.342 c 0.416,0.726 10.156,18.089 10.156,43.56 0,14.6 -3.169,28.865 -9.436,42.541 m -80.43,80.43 c 3.296,2.351 6.855,4.614 10.701,6.752 2.057,1.145 4.129,2.218 6.213,3.225 -0.005,0.062 12.879,5.297 12.879,5.278 6.115,2.071 12.318,3.567 18.59,4.482 h 31.106 c 5.752,-0.858 11.448,-2.205 17.068,-4.036 0.252,-3.974 -0.381,-10.714 -1.203,-13.942 -6.144,2.437 -17.606,5.999 -32.096,5.999 -0.937,0 -1.873,-0.017 -2.808,-0.046 -13.039,-0.571 -23.219,-3.891 -28.626,-6.08 l -0.004,0.04 c -5.418,-1.541 -13.617,-5.689 -13.613,-5.71 -0.387,-0.205 -0.774,-0.409 -1.159,-0.622 -2.713,-1.509 -5.266,-3.086 -7.67,-4.718 -1.632,-2.404 -3.209,-4.957 -4.718,-7.669 -0.213,-0.385 -0.417,-0.774 -0.622,-1.16 -0.02,0.004 -4.169,-8.196 -5.71,-13.614 l 0.04,-0.003 c -2.188,-5.407 -5.509,-15.586 -6.08,-28.625 -0.028,-0.936 -0.046,-1.872 -0.046,-2.809 0,-14.49 3.563,-25.951 5.999,-32.096 -3.227,-0.822 -9.968,-1.455 -13.942,-1.203 -1.83,5.621 -3.178,11.317 -4.035,17.069 v 31.105 c 0.915,6.271 2.41,12.475 4.481,18.59 -0.018,0 5.216,12.885 5.278,12.879 1.007,2.084 2.08,4.156 3.225,6.213 2.139,3.846 4.401,7.405 6.752,10.701 m -19.736,137.361 c 0.816,0.024 1.635,0.041 2.459,0.047 0.359,0.002 0.716,-10e-4 1.076,-10e-4 v 0.003 c 0,0 11.133,0.002 16.508,-1.626 10.407,-1.728 33.159,-7.881 52.16,-29.575 0.501,-0.6 0.96,-1.166 1.379,-1.699 1.329,1.83 5.923,8.222 7.569,11.344 -3.33,3.845 -7.897,8.484 -13.789,13.1 -9.539,7.476 -24.088,15.997 -43.741,19.672 0.004,0.009 0.01,0.019 0.013,0.028 -2.259,0.34 -9.19,1.343 -13.841,1.636 0,-0.002 -0.002,-0.005 -0.002,-0.007 -2.422,0.137 -4.898,0.205 -7.444,0.184 -0.789,-0.007 -1.571,-0.021 -2.347,-0.043 z M 417.639,334.163 h 13.063 c 0.022,0.776 0.036,1.558 0.043,2.347 0.021,2.546 -0.047,5.022 -0.183,7.444 10e-4,0 0.004,0.002 0.006,0.002 -0.293,4.651 -1.296,11.582 -1.636,13.841 -0.009,-0.004 -0.019,-0.009 -0.028,-0.013 -3.675,19.653 -12.196,34.202 -19.672,43.741 -4.616,5.892 -9.254,10.459 -13.1,13.789 -3.122,-1.647 -9.514,-6.24 -11.344,-7.569 0.533,-0.419 1.099,-0.878 1.699,-1.379 21.694,-19.001 27.847,-41.753 29.576,-52.16 1.627,-5.375 1.625,-16.508 1.625,-16.508 h -0.003 c 10e-4,-0.36 0.003,-0.717 0.002,-1.076 -0.007,-0.824 -0.024,-1.643 -0.048,-2.459 m -117.624,36.511 c 0.776,-0.022 1.558,-0.036 2.347,-0.043 1.871,-0.015 3.706,0.018 5.508,0.09 -2.169,4.444 -3.507,8.146 -4.964,12.967 -0.145,0.003 -0.288,0 -0.432,0 -0.824,0.007 -1.643,0.023 -2.459,0.048 z m 36.511,-36.511 h 13.062 c -0.025,0.816 -0.041,1.635 -0.048,2.459 0,0.144 0.003,0.287 0,0.432 -4.821,1.457 -8.523,2.795 -12.967,4.964 -0.072,-1.802 -0.105,-3.637 -0.09,-5.508 0.007,-0.789 0.021,-1.571 0.043,-2.347 m 63.655,100.166 c 6.267,13.676 9.436,27.941 9.436,42.541 0,25.47 -9.74,42.834 -10.156,43.56 l -1.908,3.342 -3.85,-0.05 c -0.537,-0.008 -13.341,-0.251 -29.626,-6.884 -14.952,-6.088 -35.929,-18.97 -50.946,-45.761 -0.898,-1.602 -1.739,-3.214 -2.553,-4.831 3.278,-0.122 9.344,-0.847 13.758,-1.899 0.063,0.114 0.122,0.23 0.186,0.345 10.474,18.684 25.269,32.09 43.972,39.843 9.039,3.747 16.883,5.209 21.372,5.774 2.472,-5.717 6.69,-17.771 6.69,-33.439 0,-15.871 -4.331,-31.35 -12.877,-46.003 -0.409,-0.701 -0.825,-1.393 -1.248,-2.08 -0.007,0.008 -0.015,0.02 -0.023,0.029 -1.363,-2.032 -6.092,-9.029 -8.025,-11.21 -0.725,-0.957 -1.612,-2.074 -2.666,-3.312 -9.049,-10.156 -19.889,-17.929 -32.401,-23.199 -8.017,-3.378 -15.038,-4.948 -19.606,-5.677 1.098,-4.275 2.909,-8.818 5.432,-12.65 7.192,1.454 13.683,3.554 19.476,5.998 -2.444,-5.793 -4.544,-12.284 -5.998,-19.476 3.832,-2.523 8.375,-4.334 12.651,-5.432 0.728,4.568 2.298,11.589 5.676,19.606 5.27,12.512 13.043,23.352 23.199,32.401 1.238,1.053 2.355,1.941 3.312,2.666 2.181,1.933 9.178,6.662 11.21,8.025 -0.009,0.008 -0.021,0.016 -0.029,0.023 0.687,0.422 1.379,0.838 2.08,1.248 14.653,8.546 30.132,12.877 46.003,12.877 15.668,0 27.722,-4.218 33.439,-6.69 -0.565,-4.489 -2.027,-12.333 -5.774,-21.372 -7.753,-18.703 -21.158,-33.498 -39.843,-43.972 -0.115,-0.064 -0.231,-0.123 -0.345,-0.186 1.052,-4.414 1.777,-10.48 1.899,-13.758 1.617,0.814 3.229,1.655 4.831,2.553 26.791,15.017 39.673,35.994 45.761,50.946 6.633,16.285 6.876,29.089 6.884,29.626 l 0.05,3.85 -3.342,1.908 c -0.726,0.416 -18.09,10.156 -43.56,10.156 -14.6,0 -28.865,-3.169 -42.541,-9.436 m -80.43,-80.43 c -2.351,3.296 -4.613,6.855 -6.752,10.701 -1.145,2.057 -2.218,4.129 -3.225,6.213 -0.062,-0.005 -5.296,12.879 -5.278,12.879 -2.071,6.115 -3.566,12.318 -4.481,18.59 v 31.106 c 0.857,5.752 2.205,11.447 4.035,17.068 3.974,0.252 10.715,-0.381 13.942,-1.203 -2.436,-6.144 -5.999,-17.606 -5.999,-32.096 0,-0.937 0.018,-1.873 0.046,-2.808 0.571,-13.039 3.892,-23.219 6.08,-28.626 l -0.04,-0.004 c 1.541,-5.418 5.69,-13.617 5.71,-13.613 0.205,-0.387 0.409,-0.774 0.622,-1.159 1.509,-2.713 3.086,-5.266 4.718,-7.67 2.404,-1.632 4.957,-3.209 7.67,-4.718 0.385,-0.213 0.772,-0.417 1.159,-0.622 -0.004,-0.02 8.195,-4.169 13.613,-5.71 l 0.004,0.04 c 5.407,-2.188 15.587,-5.509 28.626,-6.08 0.935,-0.028 1.871,-0.046 2.808,-0.046 14.49,0 25.952,3.563 32.096,5.999 0.822,-3.227 1.455,-9.968 1.203,-13.942 -5.62,-1.83 -11.316,-3.178 -17.068,-4.035 h -31.106 c -6.272,0.915 -12.475,2.41 -18.59,4.481 0,-0.019 -12.884,5.216 -12.879,5.278 -2.084,1.007 -4.156,2.08 -6.213,3.225 -3.846,2.139 -7.405,4.401 -10.701,6.752 m -137.36,-19.736 c -0.025,0.816 -0.041,1.635 -0.048,2.459 -0.002,0.359 0.001,0.716 0.002,1.076 h -0.004 c 0,0 -0.002,11.133 1.626,16.508 1.728,10.407 7.882,33.159 29.575,52.16 0.601,0.501 1.166,0.96 1.699,1.379 -1.83,1.329 -8.221,5.922 -11.344,7.569 -3.845,-3.33 -8.484,-7.897 -13.1,-13.789 -7.476,-9.539 -15.997,-24.088 -19.672,-43.741 -0.009,0.004 -0.019,0.009 -0.027,0.013 -0.341,-2.259 -1.344,-9.19 -1.637,-13.841 0.002,0 0.005,-0.002 0.007,-0.002 -0.137,-2.422 -0.204,-4.898 -0.184,-7.444 0.007,-0.789 0.022,-1.571 0.043,-2.347 z m 117.624,117.624 v 13.063 c -0.777,0.022 -1.559,0.036 -2.348,0.043 -2.546,0.021 -5.021,-0.047 -7.443,-0.184 0,0.002 -0.002,0.005 -0.002,0.007 -4.652,-0.293 -11.582,-1.296 -13.842,-1.636 0.004,-0.009 0.01,-0.019 0.014,-0.028 -19.654,-3.675 -34.203,-12.196 -43.742,-19.672 -5.891,-4.616 -10.459,-9.255 -13.789,-13.1 1.647,-3.122 6.241,-9.514 7.57,-11.344 0.419,0.533 0.878,1.099 1.379,1.699 19.001,21.694 41.752,27.847 52.16,29.575 5.375,1.628 16.507,1.626 16.507,1.626 v -0.003 c 0.36,0 0.717,0.003 1.077,10e-4 0.823,-0.006 1.642,-0.023 2.459,-0.047 M 263.503,334.163 c 0.022,0.776 0.036,1.558 0.043,2.347 0.016,1.871 -0.018,3.706 -0.09,5.508 -4.443,-2.169 -8.145,-3.507 -12.967,-4.964 -0.003,-0.145 0,-0.288 0,-0.432 -0.007,-0.824 -0.023,-1.643 -0.048,-2.459 z m 36.512,36.511 v 13.062 c -0.817,-0.025 -1.636,-0.041 -2.459,-0.048 -0.145,0 -0.287,0.003 -0.433,0 -1.457,-4.821 -2.795,-8.523 -4.964,-12.967 1.802,-0.072 3.637,-0.105 5.508,-0.09 0.789,0.007 1.571,0.021 2.348,0.043 m -100.166,63.655 c -13.677,6.267 -27.942,9.436 -42.541,9.436 -25.471,0 -42.834,-9.74 -43.561,-10.156 l -3.342,-1.908 0.05,-3.85 c 0.008,-0.537 0.251,-13.341 6.884,-29.626 6.089,-14.952 18.971,-35.929 45.762,-50.946 1.601,-0.898 3.213,-1.739 4.831,-2.553 0.122,3.278 0.846,9.344 1.898,13.758 -0.114,0.063 -0.229,0.122 -0.345,0.186 -18.684,10.474 -32.089,25.269 -39.842,43.972 -3.747,9.039 -5.209,16.883 -5.775,21.372 5.717,2.472 17.772,6.69 33.44,6.69 15.871,0 31.349,-4.331 46.003,-12.877 0.701,-0.41 1.392,-0.826 2.08,-1.248 -0.009,-0.007 -0.021,-0.015 -0.03,-0.023 2.033,-1.363 9.03,-6.092 11.21,-8.025 0.957,-0.725 2.075,-1.613 3.312,-2.666 10.156,-9.049 17.93,-19.889 23.199,-32.401 3.378,-8.017 4.948,-15.038 5.677,-19.606 4.275,1.098 8.818,2.909 12.65,5.432 -1.454,7.192 -3.554,13.683 -5.998,19.476 5.793,-2.444 12.284,-4.544 19.477,-5.998 2.522,3.832 4.334,8.375 5.431,12.65 -4.568,0.729 -11.589,2.299 -19.606,5.677 -12.512,5.27 -23.352,13.043 -32.4,23.199 -1.054,1.238 -1.942,2.355 -2.667,3.312 -1.933,2.181 -6.662,9.178 -8.025,11.21 -0.008,-0.009 -0.016,-0.021 -0.022,-0.029 -0.423,0.687 -0.839,1.379 -1.248,2.08 -8.546,14.653 -12.877,30.132 -12.877,46.003 0,15.668 4.217,27.722 6.689,33.439 4.489,-0.565 12.333,-2.027 21.372,-5.774 18.703,-7.753 33.498,-21.159 43.972,-39.843 0.064,-0.115 0.123,-0.231 0.186,-0.345 4.414,1.052 10.48,1.777 13.758,1.899 -0.813,1.617 -1.655,3.229 -2.553,4.831 -15.017,26.791 -35.994,39.673 -50.946,45.761 -16.285,6.633 -29.089,6.876 -29.626,6.884 l -3.849,0.05 -1.909,-3.342 c -0.416,-0.726 -10.156,-18.09 -10.156,-43.56 0,-14.6 3.169,-28.865 9.437,-42.541 m 80.429,-80.43 c -3.296,-2.351 -6.855,-4.613 -10.701,-6.752 -2.056,-1.145 -4.129,-2.218 -6.213,-3.225 0.005,-0.062 -12.879,-5.297 -12.879,-5.278 -6.115,-2.071 -12.318,-3.566 -18.589,-4.481 h -31.107 c -5.752,0.857 -11.447,2.205 -17.067,4.035 -0.252,3.974 0.381,10.715 1.202,13.942 6.144,-2.436 17.606,-5.999 32.097,-5.999 0.936,0 1.873,0.018 2.807,0.046 13.039,0.571 23.219,3.892 28.626,6.08 l 0.004,-0.04 c 5.418,1.541 13.617,5.69 13.613,5.71 0.387,0.205 0.775,0.409 1.159,0.622 2.713,1.509 5.266,3.086 7.67,4.718 1.632,2.404 3.209,4.957 4.718,7.67 0.213,0.385 0.417,0.772 0.622,1.159 0.021,-0.004 4.169,8.195 5.71,13.613 l -0.04,0.004 c 2.189,5.407 5.509,15.587 6.08,28.626 0.029,0.935 0.046,1.871 0.046,2.808 0,14.49 -3.562,25.952 -5.999,32.096 3.228,0.822 9.968,1.455 13.942,1.203 1.831,-5.621 3.178,-11.316 4.036,-17.068 v -31.106 c -0.915,-6.272 -2.411,-12.475 -4.482,-18.59 0.019,0 -5.216,-12.884 -5.278,-12.879 -1.007,-2.084 -2.08,-4.156 -3.225,-6.213 -2.138,-3.846 -4.401,-7.405 -6.752,-10.701 m 19.737,-137.36 c -0.817,-0.025 -1.636,-0.041 -2.459,-0.049 -0.36,-0.002 -0.717,0.002 -1.077,0.002 v -0.004 c 0,0 -11.132,-0.002 -16.507,1.627 -10.408,1.729 -33.159,7.881 -52.16,29.574 -0.501,0.602 -0.96,1.166 -1.379,1.7 -1.329,-1.83 -5.923,-8.221 -7.57,-11.344 3.33,-3.846 7.898,-8.484 13.789,-13.1 9.539,-7.476 24.088,-15.998 43.742,-19.672 -0.004,-0.009 -0.01,-0.019 -0.014,-0.027 2.26,-0.342 9.19,-1.344 13.842,-1.637 0,0.002 0.002,0.004 0.002,0.006 2.422,-0.136 4.897,-0.203 7.443,-0.183 0.789,0.007 1.571,0.021 2.348,0.043 z M 182.391,334.163 h -13.064 c -0.021,-0.777 -0.036,-1.559 -0.043,-2.348 -0.02,-2.546 0.047,-5.022 0.184,-7.443 -0.002,0 -0.005,-0.002 -0.007,-0.002 0.293,-4.652 1.296,-11.582 1.637,-13.842 0.008,0.004 0.018,0.01 0.027,0.014 3.675,-19.653 12.196,-34.202 19.672,-43.741 4.616,-5.893 9.255,-10.459 13.1,-13.789 3.123,1.646 9.514,6.24 11.344,7.568 -0.533,0.42 -1.098,0.879 -1.699,1.379 -21.693,19.002 -27.847,41.753 -29.575,52.161 -1.628,5.375 -1.626,16.507 -1.626,16.507 h 0.004 c -0.001,0.36 -0.004,0.717 -0.002,1.077 0.007,0.823 0.023,1.642 0.048,2.459 M 300.015,297.65 c -0.777,0.024 -1.559,0.038 -2.348,0.043 -1.871,0.016 -3.706,-0.017 -5.508,-0.089 2.169,-4.444 3.507,-8.145 4.964,-12.967 0.146,-0.002 0.288,0 0.433,0 0.823,-0.006 1.642,-0.024 2.459,-0.047 z m -36.512,36.513 h -13.062 c 0.025,-0.817 0.041,-1.636 0.048,-2.459 0,-0.145 -0.003,-0.287 0,-0.433 4.822,-1.457 8.524,-2.795 12.967,-4.964 0.072,1.802 0.106,3.637 0.09,5.508 -0.007,0.789 -0.021,1.571 -0.043,2.348 M 199.849,233.996 c -6.268,-13.676 -9.437,-27.941 -9.437,-42.541 0,-25.471 9.74,-42.834 10.156,-43.56 l 1.909,-3.342 3.849,0.051 c 0.537,0.007 13.341,0.25 29.626,6.882 14.952,6.09 35.929,18.971 50.946,45.762 0.898,1.602 1.74,3.215 2.553,4.832 -3.278,0.121 -9.344,0.846 -13.758,1.899 -0.063,-0.116 -0.122,-0.231 -0.186,-0.346 -10.474,-18.684 -25.269,-32.09 -43.972,-39.842 -9.039,-3.748 -16.883,-5.209 -21.372,-5.775 -2.472,5.716 -6.689,17.771 -6.689,33.439 0,15.871 4.331,31.35 12.877,46.004 0.409,0.701 0.825,1.393 1.248,2.08 0.006,-0.01 0.014,-0.021 0.022,-0.029 1.363,2.031 6.092,9.029 8.025,11.209 0.725,0.957 1.613,2.074 2.667,3.312 9.048,10.157 19.888,17.93 32.4,23.199 8.017,3.377 15.038,4.948 19.606,5.676 -1.097,4.276 -2.909,8.819 -5.431,12.651 -7.193,-1.453 -13.684,-3.553 -19.477,-5.998 2.444,5.793 4.544,12.284 5.998,19.477 -3.832,2.522 -8.375,4.334 -12.65,5.431 -0.729,-4.568 -2.299,-11.589 -5.677,-19.606 -5.269,-12.511 -13.043,-23.351 -23.199,-32.4 -1.237,-1.055 -2.355,-1.941 -3.312,-2.666 -2.18,-1.934 -9.177,-6.662 -11.21,-8.025 0.009,-0.008 0.021,-0.016 0.03,-0.024 -0.688,-0.422 -1.379,-0.838 -2.08,-1.248 -14.654,-8.545 -30.132,-12.877 -46.003,-12.877 -15.668,0 -27.723,4.219 -33.44,6.69 0.566,4.49 2.028,12.334 5.775,21.373 7.753,18.703 21.158,33.497 39.842,43.971 0.116,0.064 0.231,0.123 0.345,0.186 -1.052,4.414 -1.776,10.48 -1.898,13.758 -1.618,-0.813 -3.23,-1.655 -4.831,-2.553 -26.791,-15.017 -39.673,-35.993 -45.762,-50.946 -6.633,-16.286 -6.876,-29.088 -6.884,-29.625 l -0.05,-3.85 3.342,-1.908 c 0.727,-0.416 18.09,-10.156 43.561,-10.156 14.599,0 28.864,3.168 42.541,9.435 m 80.429,80.43 c 2.351,-3.296 4.614,-6.855 6.752,-10.701 1.145,-2.057 2.218,-4.129 3.225,-6.213 0.062,0.006 5.297,-12.879 5.278,-12.879 2.071,-6.115 3.567,-12.319 4.482,-18.59 v -31.105 c -0.858,-5.752 -2.205,-11.448 -4.036,-17.069 -3.974,-0.252 -10.714,0.381 -13.942,1.203 2.437,6.145 5.999,17.606 5.999,32.096 0,0.937 -0.017,1.873 -0.046,2.809 -0.571,13.039 -3.891,23.218 -6.08,28.625 l 0.04,0.003 c -1.541,5.418 -5.689,13.618 -5.71,13.614 -0.205,0.386 -0.409,0.775 -0.622,1.16 -1.509,2.712 -3.086,5.265 -4.718,7.669 -2.404,1.632 -4.957,3.209 -7.67,4.718 -0.384,0.213 -0.772,0.417 -1.159,0.622 0.004,0.021 -8.195,4.169 -13.613,5.71 l -0.004,-0.04 c -5.407,2.189 -15.587,5.509 -28.626,6.08 -0.934,0.029 -1.871,0.046 -2.807,0.046 -14.491,0 -25.953,-3.562 -32.097,-5.999 -0.821,3.228 -1.454,9.968 -1.202,13.942 5.62,1.831 11.315,3.178 17.067,4.036 h 31.107 c 6.271,-0.915 12.474,-2.411 18.589,-4.482 0,0.019 12.884,-5.216 12.879,-5.278 2.084,-1.007 4.157,-2.08 6.213,-3.225 3.846,-2.138 7.405,-4.401 10.701,-6.752"
           style="fill:#ec008c;fill-opacity:1;fill-rule:nonzero;stroke:none"
           id="path112955"
           inkscape:connector-curvature="0" /></g></g></g></svg>